<svg xmlns="http://www.w3.org/2000/svg" viewBox="5.79 7.33 48.42 45.34"><path d="M 34.619141 7.3320312 C 34.224826 7.3224453 33.828187 7.3315781 33.429688 7.3613281 C 29.509687 7.6553281 25.498266 8.1737031 21.947266 9.9707031 C 18.957266 11.484703 16.359281 13.997125 15.238281 17.203125 C 14.545281 19.184125 14.626563 21.181719 15.351562 23.136719 C 16.050563 25.023719 16.927281 26.883625 18.113281 28.515625 C 19.147281 29.938625 20.380234 31.18625 21.740234 32.28125 C 18.888234 33.81725 16.118078 35.503344 13.580078 37.527344 C 10.819078 39.729344 8.1335469 42.469875 6.5605469 45.671875 C 5.7735469 47.273875 5.4346406 49.113859 6.3066406 50.755859 C 7.2536406 52.540859 9.2490312 52.852844 11.082031 52.589844 C 14.853031 52.047844 17.948109 49.251156 20.662109 46.785156 C 24.060109 43.699156 27.147562 40.294484 30.226562 36.896484 C 30.236563 36.885484 30.236094 36.873328 30.246094 36.861328 C 32.723094 37.720328 35.311547 38.256922 37.935547 38.294922 C 41.606547 38.347922 45.409969 37.383516 48.417969 35.228516 C 51.324969 33.145516 53.507687 29.978297 54.054688 26.404297 C 54.190687 25.531297 54.241594 24.657438 54.183594 23.773438 C 53.609594 17.107437 48.084281 12.459953 42.488281 9.6269531 C 40.030406 8.3827031 37.379342 7.3991328 34.619141 7.3320312 z M 34.566406 9.3046875 C 34.943047 9.3097344 35.317203 9.3335625 35.689453 9.3828125 C 37.076453 9.5658125 38.441469 10.013969 39.730469 10.542969 C 42.375469 11.628969 44.965438 13.17925 47.148438 15.03125 C 49.739438 17.23025 51.885594 20.307437 52.183594 23.773438 C 52.397594 26.996437 51.055672 30.116375 48.763672 32.359375 C 46.454672 34.619375 43.250547 35.895938 40.060547 36.210938 C 36.481547 36.563938 32.908844 35.814141 29.589844 34.494141 C 26.580844 33.297141 23.672812 31.603969 21.382812 29.292969 C 20.131812 28.030969 19.128125 26.589906 18.328125 25.003906 C 17.529125 23.420906 16.651422 21.600109 16.732422 19.787109 C 16.867422 16.769109 19.066234 14.137875 21.490234 12.546875 C 24.360234 10.662875 27.813641 9.9245469 31.181641 9.5605469 C 32.293141 9.4405469 33.436484 9.2895469 34.566406 9.3046875 z M 33.410156 11.091797 C 31.539375 11.066621 29.666094 11.302812 27.839844 11.742188 C 25.372844 12.336187 22.952844 13.602563 21.339844 15.601562 C 20.460844 16.691563 19.704297 18.011984 19.779297 19.458984 C 19.848297 20.787984 20.427766 22.096391 21.009766 23.275391 C 22.054766 25.395391 23.565703 27.311281 25.345703 28.863281 C 29.031703 32.075281 33.977578 33.946516 38.892578 33.478516 C 41.909578 33.191516 44.888766 32.078703 47.009766 29.845703 C 49.125766 27.618703 50.469656 24.348344 49.722656 21.277344 C 48.962656 18.606344 46.705969 16.581375 44.542969 14.984375 C 42.251969 13.292375 39.569672 11.978641 36.763672 11.431641 C 35.654422 11.215266 34.532625 11.106902 33.410156 11.091797 z M 32.822266 13.076172 C 33.456266 13.068406 34.089188 13.091984 34.710938 13.146484 C 37.548938 13.395484 40.210125 14.493875 42.578125 16.046875 C 43.689125 16.775875 44.719203 17.616641 45.658203 18.556641 C 46.590203 19.489641 47.429875 20.523547 47.796875 21.810547 C 48.353875 24.097547 47.265469 26.603156 45.730469 28.285156 C 44.182469 29.981156 42.08075 30.944656 39.84375 31.347656 C 35.69575 32.094656 31.371469 30.824109 27.980469 28.412109 C 26.310469 27.224109 24.840703 25.707234 23.720703 23.990234 C 23.177703 23.158234 22.695219 22.273562 22.324219 21.351562 C 21.871219 20.223562 21.536906 19.137141 22.128906 17.994141 C 23.146906 16.030141 25.163844 14.690953 27.214844 14.001953 C 28.993094 13.404203 30.920266 13.099469 32.822266 13.076172 z M 31.40625 15.542969 C 29.209207 15.551404 27.015156 16.194219 25.160156 17.371094 C 24.704156 17.660094 24.523734 18.262234 24.802734 18.740234 C 25.068734 19.194234 25.711922 19.389609 26.169922 19.099609 C 28.045922 17.908609 30.133656 17.401125 32.347656 17.578125 C 32.870656 17.620125 33.370656 17.088125 33.347656 16.578125 C 33.322656 16.000125 32.907656 15.622125 32.347656 15.578125 C 32.034656 15.553125 31.720113 15.541764 31.40625 15.542969 z M 17.466797 37.160156 C 19.580797 38.431156 21.416453 39.840922 23.189453 41.544922 C 22.530453 42.222922 21.864547 42.892734 21.185547 43.552734 C 18.766547 45.903734 16.168219 48.482828 13.074219 49.923828 C 12.347219 50.262828 11.552812 50.518812 10.757812 50.632812 C 10.052812 50.733812 9.1039063 50.803891 8.5039062 50.337891 C 7.3449063 49.436891 7.7839375 47.678938 8.3359375 46.585938 C 9.7549375 43.774938 12.044312 41.385625 14.445312 39.390625 C 15.408312 38.590625 16.428797 37.861156 17.466797 37.160156 z"/></svg>